<svg width="24" height="24" viewBox="0 0 24 24" fill="none" xmlns="http://www.w3.org/2000/svg">
<ellipse cx="12" cy="11.7992" rx="12" ry="11.7992" fill="white"/>
<path d="M6 16.1485C7.29171 16.2236 8.42125 15.9117 9.52283 15.0858C8.41007 14.8894 7.6384 14.3639 7.21901 13.2781C7.54334 13.2319 7.82852 13.3185 8.16403 13.1799C7.06804 12.6832 6.35788 11.9382 6.32992 10.6503C6.67661 10.6791 6.93943 10.9159 7.35322 10.8813C6.3467 9.86479 6.03914 8.7559 6.67102 7.41022C7.72227 8.65772 8.95247 9.50671 10.4567 9.90522C10.5405 9.92832 10.6188 9.95142 10.7027 9.96875C11.0885 10.0612 11.5471 10.2575 11.7819 10.2286C12.1845 10.1767 11.7819 9.6973 11.8826 9.07355C12.2013 7.133 14.2703 6.24936 15.8024 7.38712C16.2498 7.7221 16.6021 7.71632 17.0438 7.51418C17.2731 7.41022 17.5079 7.30626 17.7819 7.18498C17.7204 7.73942 17.3066 8.04552 16.9767 8.45558C17.3514 8.54221 17.6533 8.43248 18 8.31697C17.8826 8.71547 17.5918 8.94072 17.329 9.16018C17.055 9.38543 16.9487 9.62222 16.9376 9.99185C16.7698 15.5883 10.6132 19.9141 6.40261 16.4719C5.99441 16.1369 6.39143 16.4719 6 16.1485Z" fill="#242C2F"/>
</svg>
