<svg width="24" height="24" viewBox="0 0 24 24" fill="none" xmlns="http://www.w3.org/2000/svg">
<ellipse cx="12" cy="11.7992" rx="12" ry="11.7992" fill="white"/>
<path d="M15.4114 17.004H8.44454C7.48182 17.004 6.69531 16.2307 6.69531 15.2841V8.43382C6.69531 7.48721 7.48182 6.71387 8.44454 6.71387H15.4114C16.3741 6.71387 17.1606 7.48721 17.1606 8.43382V15.2841C17.1606 16.2349 16.3784 17.004 15.4114 17.004Z" fill="#242C2F"/>
<path d="M11.9303 14.5023C11.2126 14.5023 10.5378 14.2276 10.0306 13.7289C9.5235 13.2303 9.24414 12.5668 9.24414 11.8611C9.24414 11.1553 9.5235 10.4919 10.0306 9.99319C10.5378 9.49453 11.2126 9.21985 11.9303 9.21985C12.648 9.21985 13.3228 9.49453 13.83 9.99319C14.3371 10.4919 14.6165 11.1553 14.6165 11.8611C14.6165 12.5668 14.3371 13.2303 13.83 13.7289C13.3185 14.2276 12.648 14.5023 11.9303 14.5023ZM11.9303 9.7819C10.7656 9.7819 9.81576 10.7116 9.81576 11.8611C9.81576 13.0063 10.7613 13.9402 11.9303 13.9402C13.095 13.9402 14.0449 13.0105 14.0449 11.8611C14.0406 10.7158 13.095 9.7819 11.9303 9.7819Z" fill="white"/>
<path d="M15.1398 9.13315C15.4246 9.13315 15.6555 8.9061 15.6555 8.62602C15.6555 8.34594 15.4246 8.1189 15.1398 8.1189C14.8549 8.1189 14.624 8.34594 14.624 8.62602C14.624 8.9061 14.8549 9.13315 15.1398 9.13315Z" fill="white"/>
</svg>
